<svg fill="none" viewBox="0 0 128.59 24.5" xmlns="http://www.w3.org/2000/svg" style="max-height: 500px" width="128.59" height="24.5"><path fill="#00C383" d="M24.1027 0H0.0078125V24H24.1027V0Z"/><path fill="#00C383" d="M49.9464 0H25.8516V24H49.9464V0Z"/><path fill="#00C383" d="M76.0636 0H51.9688V24H76.0636V0Z"/><path fill="#00C383" d="M101.907 0H77.8125V24H101.907V0Z"/><path fill-opacity="0.2" fill="#2E2E2E" d="M103.906 0H128.001V24H103.906V0Z"/><path fill="#00C383" d="M103.906 0H121.906V24H103.906V0Z"/><path fill="white" d="M12.0547 3L14.0753 9.21885H20.6142L15.3241 13.0623L17.3448 19.2812L12.0547 15.4377L6.76462 19.2812L8.78525 13.0623L3.49518 9.21885H10.0341L12.0547 3Z"/><path fill="white" d="M37.8984 3L39.9191 9.21885H46.4579L41.1679 13.0623L43.1885 19.2812L37.8984 15.4377L32.6084 19.2812L34.629 13.0623L29.3389 9.21885H35.8778L37.8984 3Z"/><path fill="white" d="M64.0156 3L66.0363 9.21885H72.5751L67.2851 13.0623L69.3057 19.2812L64.0156 15.4377L58.7256 19.2812L60.7462 13.0623L55.4561 9.21885H61.995L64.0156 3Z"/><path fill="white" d="M89.8594 3L91.88 9.21885H98.4189L93.1288 13.0623L95.1494 19.2812L89.8594 15.4377L84.5693 19.2812L86.5899 13.0623L81.2999 9.21885H87.8387L89.8594 3Z"/><path fill="white" d="M115.953 3L117.974 9.21885H124.513L119.223 13.0623L121.243 19.2812L115.953 15.4377L110.663 19.2812L112.684 13.0623L107.394 9.21885H113.932L115.953 3Z"/><path fill="#00B67A" d="M143.393 15.84H136.823V12.96L141.053 5.4H144.743L140.513 12.96H143.393V10.17H143.573H146.723V12.96H148.343V15.84H146.723V18H143.393V15.84ZM150.594 18.27C150.138 18.27 149.754 18.114 149.442 17.802C149.13 17.49 148.974 17.106 148.974 16.65C148.974 16.194 149.13 15.81 149.442 15.498C149.754 15.186 150.138 15.03 150.594 15.03C151.05 15.03 151.434 15.186 151.746 15.498C152.058 15.81 152.214 16.194 152.214 16.65C152.214 17.106 152.058 17.49 151.746 17.802C151.434 18.114 151.05 18.27 150.594 18.27ZM159.148 18.36C158.176 18.36 157.33 18.252 156.61 18.036C155.89 17.82 155.29 17.532 154.81 17.172C154.342 16.812 153.988 16.398 153.748 15.93C153.508 15.462 153.388 14.982 153.388 14.49C153.388 13.842 153.526 13.314 153.802 12.906C154.078 12.498 154.39 12.174 154.738 11.934C155.134 11.658 155.584 11.46 156.088 11.34V11.16C155.68 11.04 155.32 10.866 155.008 10.638C154.732 10.434 154.48 10.17 154.252 9.846C154.036 9.51 153.928 9.078 153.928 8.55C153.928 8.106 154.036 7.674 154.252 7.254C154.468 6.822 154.792 6.444 155.224 6.12C155.656 5.796 156.196 5.538 156.844 5.346C157.504 5.142 158.272 5.04 159.148 5.04C160.024 5.04 160.786 5.142 161.434 5.346C162.094 5.538 162.64 5.796 163.072 6.12C163.504 6.444 163.828 6.822 164.044 7.254C164.26 7.674 164.368 8.106 164.368 8.55C164.368 9.078 164.254 9.51 164.026 9.846C163.81 10.17 163.564 10.434 163.288 10.638C162.976 10.866 162.616 11.04 162.208 11.16V11.34C162.712 11.46 163.162 11.658 163.558 11.934C163.894 12.174 164.2 12.498 164.476 12.906C164.764 13.314 164.908 13.842 164.908 14.49C164.908 14.982 164.788 15.462 164.548 15.93C164.308 16.398 163.948 16.812 163.468 17.172C163 17.532 162.406 17.82 161.686 18.036C160.966 18.252 160.12 18.36 159.148 18.36ZM159.148 15.66C159.868 15.66 160.408 15.51 160.768 15.21C161.128 14.898 161.308 14.538 161.308 14.13C161.308 13.722 161.128 13.368 160.768 13.068C160.408 12.756 159.868 12.6 159.148 12.6C158.428 12.6 157.888 12.756 157.528 13.068C157.168 13.368 156.988 13.722 156.988 14.13C156.988 14.538 157.168 14.898 157.528 15.21C157.888 15.51 158.428 15.66 159.148 15.66ZM159.148 10.08C159.736 10.08 160.168 9.966 160.444 9.738C160.72 9.498 160.858 9.222 160.858 8.91C160.858 8.598 160.72 8.328 160.444 8.1C160.168 7.86 159.736 7.74 159.148 7.74C158.56 7.74 158.128 7.86 157.852 8.1C157.576 8.328 157.438 8.598 157.438 8.91C157.438 9.222 157.576 9.498 157.852 9.738C158.128 9.966 158.56 10.08 159.148 10.08Z"/></svg>